<svg width="25" height="25" viewBox="0 0 25 25" fill="none" xmlns="http://www.w3.org/2000/svg">
<circle cx="12.5" cy="12.5" r="12.5" fill="#31708E"/>
<path d="M16.1581 8.75969C15.3894 8.40738 14.5727 8.15115 13.7143 8.00062C13.6983 8.00062 13.6823 8.00062 13.6759 8.01984C13.5702 8.2088 13.4517 8.45222 13.3716 8.64439C12.4428 8.50667 11.53 8.50667 10.6268 8.64439C10.5435 8.44581 10.425 8.2056 10.3065 8.01984C10.2969 8.00703 10.2841 7.99742 10.2681 8.00062C9.53143 8.14795 8.5898 8.41699 7.83393 8.75969C7.82753 8.75969 7.82112 8.7661 7.81792 8.7725C6.24853 11.1106 5.83216 13.3526 6.05636 15.5945C6.05636 15.6041 6.06276 15.617 6.07237 15.6266C7.09728 16.3824 8.09016 16.8436 9.07022 17.1415C9.08624 17.1415 9.10225 17.1415 9.11186 17.1287C9.34247 16.8148 9.54745 16.4817 9.72681 16.1294C9.73641 16.1102 9.72681 16.0846 9.70439 16.0782C9.3841 15.9501 9.06382 15.8027 8.76596 15.6298C8.74354 15.617 8.74033 15.5817 8.76596 15.5657C8.83001 15.5177 8.89407 15.4696 8.95172 15.4216C8.96133 15.412 8.97734 15.412 8.99015 15.4152C10.9567 16.312 13.0898 16.312 15.0115 15.4152C15.0243 15.4088 15.0403 15.412 15.0499 15.4184C15.1108 15.4696 15.1716 15.5177 15.2357 15.5657C15.2581 15.5817 15.2549 15.617 15.2357 15.6298C14.9378 15.8059 14.6271 15.9501 14.2972 16.0782C14.2748 16.0878 14.2652 16.1102 14.278 16.1326C14.4574 16.4849 14.6656 16.8148 14.8866 17.1255C14.8962 17.1383 14.9122 17.1447 14.9282 17.1383C15.9083 16.834 16.9044 16.376 17.9325 15.6234C17.9421 15.617 17.9485 15.6073 17.9485 15.5913C18.1983 13.0002 17.5289 10.7551 16.1741 8.7693C16.1741 8.76289 16.1645 8.75649 16.1581 8.75649V8.75969ZM10.0087 14.2365C9.40012 14.2365 8.91969 13.6921 8.91969 13.0195C8.91969 12.3469 9.40012 11.8024 10.0087 11.8024C10.6172 11.8024 11.0976 12.3469 11.0976 13.0195C11.0976 13.6921 10.6172 14.2365 10.0087 14.2365ZM14.0122 14.2365C13.4037 14.2365 12.9232 13.6921 12.9232 13.0195C12.9232 12.3469 13.4037 11.8024 14.0122 11.8024C14.6207 11.8024 15.1012 12.3469 15.1012 13.0195C15.1012 13.6921 14.6207 14.2365 14.0122 14.2365Z" fill="#F7F9FB"/>
</svg>
